<svg width="24" height="24" viewBox="0 0 24 24" fill="none" xmlns="http://www.w3.org/2000/svg">
<path fill-rule="evenodd" clip-rule="evenodd" d="M0 11.75C0 5.26065 5.26065 0 11.75 0C18.2393 0 23.5 5.26065 23.5 11.75C23.5 18.2393 18.2393 23.5 11.75 23.5C5.26065 23.5 0 18.2393 0 11.75ZM10.2197 8.28033C9.92678 7.98744 9.92678 7.51256 10.2197 7.21967C10.5126 6.92678 10.9874 6.92678 11.2803 7.21967L15.2803 11.2197C15.421 11.3603 15.5 11.5511 15.5 11.75C15.5 11.9489 15.421 12.1397 15.2803 12.2803L11.2803 16.2803C10.9874 16.5732 10.5126 16.5732 10.2197 16.2803C9.92678 15.9874 9.92678 15.5126 10.2197 15.2197L13.6893 11.75L10.2197 8.28033Z" fill="#101010"/>
</svg>
