<svg width="24" height="24" viewBox="0 0 24 24" fill="none" xmlns="http://www.w3.org/2000/svg">
<path d="M17.2197 15.7197C17.5126 15.4268 17.9874 15.4268 18.2803 15.7197C18.5732 16.0126 18.5732 16.4874 18.2803 16.7803L13.7803 21.2803C13.4874 21.5732 13.0126 21.5732 12.7197 21.2803L8.21967 16.7803C7.92678 16.4874 7.92678 16.0126 8.21967 15.7197C8.51256 15.4268 8.98744 15.4268 9.28033 15.7197L12.5 18.9393V8.35C12.5 7.35753 12.4994 6.65829 12.4548 6.11228C12.4109 5.57503 12.3282 5.25252 12.2003 5.00153C11.9366 4.48408 11.5159 4.06339 10.9985 3.79973C10.7475 3.67184 10.425 3.58909 9.88772 3.54519C9.34171 3.50058 8.64247 3.5 7.65 3.5H5.75C5.33579 3.5 5 3.16421 5 2.75C5 2.33579 5.33579 2 5.75 2H7.68261C8.63503 1.99999 9.39562 1.99999 10.0099 2.05018C10.6399 2.10165 11.1818 2.20963 11.6795 2.46322C12.4791 2.87068 13.1293 3.52085 13.5368 4.32054C13.7904 4.81824 13.8984 5.36012 13.9498 5.99013C14 6.60439 14 7.36493 14 8.31737V18.9393L17.2197 15.7197Z" fill="currentColor"/>
</svg>
