<svg width="120" height="40" viewBox="0 0 120 40" fill="none" xmlns="http://www.w3.org/2000/svg">
<path d="M0 4C0 1.79086 1.79086 0 4 0H116C118.209 0 120 1.79086 120 4V36C120 38.2091 118.209 40 116 40H4C1.79086 40 0 38.2091 0 36V4Z" fill="#92AABB"/>
<path d="M36.72 16.74H32.59V19.484H36.58V21.024H32.59V25H30.98V15.2H36.72V16.74ZM41.4321 25.182C40.4054 25.182 39.5328 24.8273 38.8141 24.118C38.0954 23.4087 37.7361 22.536 37.7361 21.5C37.7361 20.464 38.0954 19.5913 38.8141 18.882C39.5328 18.1727 40.4054 17.818 41.4321 17.818C42.4681 17.818 43.3408 18.1727 44.0501 18.882C44.7688 19.5913 45.1281 20.464 45.1281 21.5C45.1281 22.536 44.7688 23.4087 44.0501 24.118C43.3408 24.8273 42.4681 25.182 41.4321 25.182ZM39.8781 23.082C40.2981 23.502 40.8161 23.712 41.4321 23.712C42.0481 23.712 42.5661 23.502 42.9861 23.082C43.4061 22.662 43.6161 22.1347 43.6161 21.5C43.6161 20.8653 43.4061 20.338 42.9861 19.918C42.5661 19.498 42.0481 19.288 41.4321 19.288C40.8161 19.288 40.2981 19.498 39.8781 19.918C39.4581 20.338 39.2481 20.8653 39.2481 21.5C39.2481 22.1347 39.4581 22.662 39.8781 23.082ZM48.0073 19.176C48.3899 18.308 49.1086 17.874 50.1633 17.874V19.512C49.5846 19.4747 49.0806 19.6147 48.6513 19.932C48.2219 20.24 48.0073 20.7533 48.0073 21.472V25H46.4953V18H48.0073V19.176ZM51.105 21.472V20.016H56.285V21.472H51.105ZM62.8617 18H64.3737V25H62.8617V24.104C62.4044 24.8227 61.6811 25.182 60.6917 25.182C59.8891 25.182 59.2404 24.9253 58.7457 24.412C58.2511 23.8987 58.0037 23.194 58.0037 22.298V18H59.5157V22.144C59.5157 22.6667 59.6557 23.068 59.9357 23.348C60.2157 23.628 60.5984 23.768 61.0837 23.768C61.6157 23.768 62.0451 23.6047 62.3717 23.278C62.6984 22.942 62.8617 22.4333 62.8617 21.752V18ZM70.8738 25.182C69.3991 25.182 68.1764 24.6967 67.2058 23.726C66.2351 22.746 65.7498 21.5373 65.7498 20.1C65.7498 18.6627 66.2351 17.4587 67.2058 16.488C68.1764 15.508 69.3991 15.018 70.8738 15.018C71.7604 15.018 72.5771 15.228 73.3238 15.648C74.0798 16.068 74.6678 16.6373 75.0878 17.356L73.6878 18.168C73.4264 17.6827 73.0438 17.3 72.5398 17.02C72.0451 16.7307 71.4898 16.586 70.8738 16.586C69.8284 16.586 68.9791 16.9173 68.3258 17.58C67.6818 18.2427 67.3598 19.0827 67.3598 20.1C67.3598 21.1173 67.6818 21.9573 68.3258 22.62C68.9791 23.2827 69.8284 23.614 70.8738 23.614C71.4898 23.614 72.0498 23.474 72.5538 23.194C73.0578 22.9047 73.4358 22.5173 73.6878 22.032L75.0878 22.83C74.6771 23.5487 74.0938 24.1227 73.3378 24.552C72.5911 24.972 71.7698 25.182 70.8738 25.182ZM79.6176 25.182C78.591 25.182 77.7183 24.8273 76.9996 24.118C76.281 23.4087 75.9216 22.536 75.9216 21.5C75.9216 20.464 76.281 19.5913 76.9996 18.882C77.7183 18.1727 78.591 17.818 79.6176 17.818C80.6536 17.818 81.5263 18.1727 82.2356 18.882C82.9543 19.5913 83.3136 20.464 83.3136 21.5C83.3136 22.536 82.9543 23.4087 82.2356 24.118C81.5263 24.8273 80.6536 25.182 79.6176 25.182ZM78.0636 23.082C78.4836 23.502 79.0016 23.712 79.6176 23.712C80.2336 23.712 80.7516 23.502 81.1716 23.082C81.5916 22.662 81.8016 22.1347 81.8016 21.5C81.8016 20.8653 81.5916 20.338 81.1716 19.918C80.7516 19.498 80.2336 19.288 79.6176 19.288C79.0016 19.288 78.4836 19.498 78.0636 19.918C77.6436 20.338 77.4336 20.8653 77.4336 21.5C77.4336 22.1347 77.6436 22.662 78.0636 23.082ZM86.063 23.572H89.465V25H84.005V23.992L87.281 19.428H84.145V18H89.325V19.008L86.063 23.572Z" fill="#F5F5F5"/>
</svg>
