<svg width="120" height="40" viewBox="0 0 120 40" fill="none" xmlns="http://www.w3.org/2000/svg">
<path d="M0 4C0 1.79086 1.79086 0 4 0H116C118.209 0 120 1.79086 120 4V36C120 38.2091 118.209 40 116 40H4C1.79086 40 0 38.2091 0 36V4Z" fill="black" fill-opacity="0.48"/>
<path d="M42.364 15.6H43.564V24H42.184V17.076L40.492 17.556L40.156 16.38L42.364 15.6ZM44.8368 24V22.92L47.7648 19.932C48.4768 19.22 48.8328 18.604 48.8328 18.084C48.8328 17.676 48.7088 17.36 48.4608 17.136C48.2208 16.904 47.9128 16.788 47.5368 16.788C46.8328 16.788 46.3128 17.136 45.9768 17.832L44.8128 17.148C45.0768 16.588 45.4488 16.164 45.9288 15.876C46.4088 15.588 46.9408 15.444 47.5248 15.444C48.2608 15.444 48.8928 15.676 49.4208 16.14C49.9488 16.604 50.2128 17.236 50.2128 18.036C50.2128 18.892 49.7368 19.804 48.7848 20.772L46.8888 22.668H50.3688V24H44.8368ZM56.9032 22.968C56.3272 23.76 55.5192 24.156 54.4792 24.156C53.4392 24.156 52.6272 23.76 52.0432 22.968C51.4672 22.176 51.1792 21.12 51.1792 19.8C51.1792 18.48 51.4672 17.424 52.0432 16.632C52.6272 15.84 53.4392 15.444 54.4792 15.444C55.5192 15.444 56.3272 15.84 56.9032 16.632C57.4872 17.424 57.7792 18.48 57.7792 19.8C57.7792 21.12 57.4872 22.176 56.9032 22.968ZM54.4792 22.812C55.1032 22.812 55.5792 22.552 55.9072 22.032C56.2352 21.512 56.3992 20.768 56.3992 19.8C56.3992 18.832 56.2352 18.088 55.9072 17.568C55.5792 17.048 55.1032 16.788 54.4792 16.788C53.8632 16.788 53.3872 17.048 53.0512 17.568C52.7232 18.088 52.5592 18.832 52.5592 19.8C52.5592 20.768 52.7232 21.512 53.0512 22.032C53.3872 22.552 53.8632 22.812 54.4792 22.812ZM64.3778 24H62.8778L61.3898 21.948L59.8898 24H58.3778L60.6338 20.916L58.4978 18H59.9978L61.3778 19.896L62.7578 18H64.2698L62.1338 20.928L64.3778 24ZM71.2482 21.204V22.488H70.2882V24H68.8962V22.488H64.7682V21.204L67.6602 15.6H69.1602L66.2682 21.204H68.8962V19.02H70.2882V21.204H71.2482ZM77.6571 22.968C77.0811 23.76 76.2731 24.156 75.2331 24.156C74.1931 24.156 73.3811 23.76 72.7971 22.968C72.2211 22.176 71.9331 21.12 71.9331 19.8C71.9331 18.48 72.2211 17.424 72.7971 16.632C73.3811 15.84 74.1931 15.444 75.2331 15.444C76.2731 15.444 77.0811 15.84 77.6571 16.632C78.2411 17.424 78.5331 18.48 78.5331 19.8C78.5331 21.12 78.2411 22.176 77.6571 22.968ZM75.2331 22.812C75.8571 22.812 76.3331 22.552 76.6611 22.032C76.9891 21.512 77.1531 20.768 77.1531 19.8C77.1531 18.832 76.9891 18.088 76.6611 17.568C76.3331 17.048 75.8571 16.788 75.2331 16.788C74.6171 16.788 74.1411 17.048 73.8051 17.568C73.4771 18.088 73.3131 18.832 73.3131 19.8C73.3131 20.768 73.4771 21.512 73.8051 22.032C74.1411 22.552 74.6171 22.812 75.2331 22.812Z" fill="#A4A4D0"/>
</svg>
