<svg width="24" height="24" viewBox="0 0 24 24" fill="none" xmlns="http://www.w3.org/2000/svg">
<path d="M12.2502 2.5C7.77598 2.5 4.04222 5.67737 3.18523 9.8992C3.10283 10.3051 2.70696 10.5674 2.30102 10.485C1.89509 10.4026 1.63281 10.0067 1.71521 9.6008C2.71131 4.69367 7.04855 1 12.2502 1C16.3007 1 19.8269 3.2398 21.6596 6.54785L22.0114 4.61555C22.0856 4.20804 22.4761 3.93781 22.8836 4.012C23.2911 4.08618 23.5613 4.47667 23.4871 4.88419L22.6839 9.29692C22.6642 9.61242 22.4448 9.89327 22.1221 9.97633C22.0465 9.99579 21.9706 10.003 21.8965 9.99921C21.8632 9.99767 21.8295 9.99389 21.7958 9.98774C21.4696 9.92836 21.2313 9.66625 21.1873 9.35497C20.1322 5.40689 16.5297 2.5 12.2502 2.5Z" fill="currentColor"/>
<path d="M22.1993 13.015C22.6053 13.0974 22.8676 13.4933 22.7852 13.8992C21.7891 18.8063 17.4518 22.5 12.2502 22.5C8.19929 22.5 4.67285 20.2598 2.84026 16.9513L2.48798 18.8846C2.41372 19.2921 2.02318 19.5622 1.61568 19.488C1.20817 19.4137 0.938024 19.0232 1.01228 18.6157L1.81657 14.2019C1.83675 13.8869 2.05598 13.6066 2.37828 13.5237C2.45464 13.504 2.53128 13.4969 2.60604 13.5009C2.63867 13.5025 2.67157 13.5063 2.70458 13.5123C3.03042 13.5717 3.26845 13.8333 3.3128 14.144C4.36759 18.0926 7.97029 21 12.2502 21C16.7244 21 20.4582 17.8226 21.3151 13.6008C21.3975 13.1949 21.7934 12.9326 22.1993 13.015Z" fill="currentColor"/>
<path fill-rule="evenodd" clip-rule="evenodd" d="M11.1967 6.23332C11.8654 5.92223 12.6374 5.92222 13.3061 6.23332L16.557 7.74566C17.4388 8.15589 18.0027 9.04022 18.0027 10.0128V13.5244C18.0027 14.5044 17.4302 15.3941 16.5382 15.8001L13.2874 17.28C12.6292 17.5796 11.8736 17.5796 11.2154 17.28L7.96459 15.8001C7.07264 15.3941 6.50012 14.5044 6.50012 13.5244V10.0128C6.50012 9.04022 7.06406 8.15589 7.94587 7.74566L11.1967 6.23332ZM12.6734 7.59335C12.4058 7.46888 12.097 7.46888 11.8294 7.59336L11.2928 7.84302L14.8656 9.49872L15.8351 9.0642L12.6734 7.59335ZM13.3543 10.1761L9.80918 8.5332L8.66785 9.06416L12.2515 10.6703L13.3543 10.1761ZM8.00012 13.5244V10.4087L11.5018 11.9781L11.5018 15.7622L8.58607 14.4349C8.22919 14.2724 8.00012 13.9165 8.00012 13.5244ZM13.0018 15.7619L13.0018 11.9778L16.5027 10.4087V13.5244C16.5027 13.9165 16.2736 14.2724 15.9168 14.4349L13.0018 15.7619Z" fill="currentColor"/>
</svg>
