<svg width="24" height="24" viewBox="0 0 24 24" fill="none" xmlns="http://www.w3.org/2000/svg">
<path d="M6.06605 16.042C6.23601 15.6643 6.68001 15.4959 7.05775 15.6658L9.05775 16.5657C9.43548 16.7357 9.60392 17.1797 9.43396 17.5574C9.26399 17.9352 8.81999 18.1036 8.44226 17.9337L6.44226 17.0337C6.06452 16.8638 5.89609 16.4198 6.06605 16.042Z" fill="currentColor"/>
<path fill-rule="evenodd" clip-rule="evenodd" d="M9.95734 1.39658C11.094 0.867808 12.406 0.867806 13.5427 1.39658L20.0427 4.42047C21.5415 5.11774 22.5 6.62082 22.5 8.27389V15.2952C22.5 16.9609 21.5269 18.4731 20.0109 19.1633L13.5109 22.1223C12.3922 22.6315 11.1078 22.6315 9.98915 22.1223L3.48915 19.1633C1.97311 18.4731 1 16.961 1 15.2952V8.27389C1 6.62083 1.95852 5.11774 3.45733 4.42047L9.95734 1.39658ZM12.91 2.75661C12.1745 2.41446 11.3255 2.41446 10.59 2.75661L8.35021 3.79861L17.2739 7.93399L20.3844 6.53986C20.1263 6.22203 19.7958 5.96 19.41 5.7805L12.91 2.75661ZM20.977 7.91807L12.5011 11.7169L12.501 20.8997C12.633 20.8622 12.7628 20.8147 12.8894 20.7571L19.3894 17.7981C20.3703 17.3515 21 16.373 21 15.2952V8.27389C21 8.15386 20.9922 8.03505 20.977 7.91807ZM11.0011 11.7179L2.52305 7.91808C2.50781 8.03506 2.5 8.15386 2.5 8.27389V15.2952C2.5 16.373 3.12966 17.3515 4.11063 17.7981L10.6106 20.7571C10.7378 20.815 10.8684 20.8627 11.001 20.9003L11.0011 11.7179ZM3.11556 6.53987L11.75 10.4098L15.4604 8.7468L6.68463 4.67999C6.64802 4.66303 6.61343 4.64349 6.58097 4.62168L4.09004 5.7805C3.7042 5.96 3.37369 6.22203 3.11556 6.53987Z" fill="currentColor"/>
</svg>
