<svg width="24" height="24" viewBox="0 0 24 24" fill="none" xmlns="http://www.w3.org/2000/svg">
<path d="M6.25 13.25C6.25 12.6977 6.69772 12.25 7.25 12.25C7.80228 12.25 8.2501 12.6977 8.2501 13.25C8.2501 13.8023 7.80238 14.25 7.2501 14.25C6.69782 14.25 6.25 13.8023 6.25 13.25Z" fill="currentColor"/>
<path d="M11.75 12.25C11.1977 12.25 10.75 12.6977 10.75 13.25C10.75 13.8023 11.1977 14.25 11.75 14.25C12.3023 14.25 12.7501 13.8023 12.7501 13.25C12.7501 12.6977 12.3023 12.25 11.75 12.25Z" fill="currentColor"/>
<path d="M15.25 13.25C15.25 12.6977 15.6977 12.25 16.25 12.25C16.8023 12.25 17.2501 12.6977 17.2501 13.25C17.2501 13.8023 16.8024 14.25 16.2501 14.25C15.6978 14.25 15.25 13.8023 15.25 13.25Z" fill="currentColor"/>
<path d="M7.25 16.25C6.69772 16.25 6.25 16.6977 6.25 17.25C6.25 17.8023 6.69772 18.25 7.25 18.25C7.80228 18.25 8.2501 17.8023 8.2501 17.25C8.2501 16.6977 7.80228 16.25 7.25 16.25Z" fill="currentColor"/>
<path d="M10.75 17.25C10.75 16.6977 11.1977 16.25 11.75 16.25C12.3023 16.25 12.7501 16.6977 12.7501 17.25C12.7501 17.8023 12.3024 18.25 11.7501 18.25C11.1978 18.25 10.75 17.8023 10.75 17.25Z" fill="currentColor"/>
<path d="M16.25 16.25C15.6977 16.25 15.25 16.6977 15.25 17.25C15.25 17.8023 15.6977 18.25 16.25 18.25C16.8023 18.25 17.2501 17.8023 17.2501 17.25C17.2501 16.6977 16.8023 16.25 16.25 16.25Z" fill="currentColor"/>
<path fill-rule="evenodd" clip-rule="evenodd" d="M8.5 0.75C8.5 0.335786 8.16421 0 7.75 0C7.33579 0 7 0.335786 7 0.75V2.00007C6.19395 2.00064 5.53458 2.00569 4.99013 2.05018C4.36012 2.10165 3.81824 2.20963 3.32054 2.46322C2.52085 2.87068 1.87068 3.52085 1.46322 4.32054C1.20963 4.81824 1.10165 5.36012 1.05018 5.99013C0.999989 6.60439 0.999994 7.36493 1 8.31737V17.1826C0.999994 18.135 0.999989 18.8956 1.05018 19.5099C1.10165 20.1399 1.20963 20.6818 1.46322 21.1795C1.87068 21.9791 2.52085 22.6293 3.32054 23.0368C3.81824 23.2904 4.36012 23.3983 4.99013 23.4498C5.60438 23.5 6.3649 23.5 7.3173 23.5H16.1826C17.135 23.5 17.8956 23.5 18.5099 23.4498C19.1399 23.3983 19.6818 23.2904 20.1795 23.0368C20.9791 22.6293 21.6293 21.9791 22.0368 21.1795C22.2904 20.6818 22.3983 20.1399 22.4498 19.5099C22.5 18.8956 22.5 18.1351 22.5 17.1827V8.31737C22.5 7.36496 22.5 6.60438 22.4498 5.99013C22.3983 5.36012 22.2904 4.81824 22.0368 4.32054C21.6293 3.52085 20.9791 2.87068 20.1795 2.46322C19.6818 2.20963 19.1399 2.10165 18.5099 2.05018C17.9654 2.00569 17.3061 2.00064 16.5 2.00007V0.75C16.5 0.335786 16.1642 0 15.75 0C15.3358 0 15 0.335786 15 0.75V2H8.5V0.75ZM16.15 3.5C17.1425 3.5 17.8417 3.50058 18.3877 3.54519C18.925 3.58909 19.2475 3.67184 19.4985 3.79973C20.0159 4.06338 20.4366 4.48408 20.7003 5.00153C20.8282 5.25252 20.9109 5.57503 20.9548 6.11228C20.9855 6.4874 20.9953 6.93484 20.9985 7.5H2.5015C2.50468 6.93484 2.51455 6.4874 2.54519 6.11228C2.58909 5.57503 2.67184 5.25252 2.79973 5.00153C3.06338 4.48408 3.48408 4.06338 4.00153 3.79973C4.25252 3.67184 4.57503 3.58909 5.11228 3.54519C5.65829 3.50058 6.35753 3.5 7.35 3.5H16.15ZM2.5 9V17.15C2.5 18.1425 2.50058 18.8417 2.54519 19.3877C2.58909 19.925 2.67184 20.2475 2.79973 20.4985C3.06338 21.0159 3.48408 21.4366 4.00153 21.7003C4.25252 21.8282 4.57503 21.9109 5.11228 21.9548C5.65829 21.9994 6.35753 22 7.35 22H16.15C17.1425 22 17.8417 21.9994 18.3877 21.9548C18.925 21.9109 19.2475 21.8282 19.4985 21.7003C20.0159 21.4366 20.4366 21.0159 20.7003 20.4985C20.8282 20.2475 20.9109 19.925 20.9548 19.3877C20.9994 18.8417 21 18.1425 21 17.15V9H2.5Z" fill="currentColor"/>
</svg>
