<svg width="24" height="24" viewBox="0 0 24 24" fill="none" xmlns="http://www.w3.org/2000/svg">
<path d="M21.25 12C21.25 6.91421 17.0858 2.75 12 2.75C6.91421 2.75 2.75 6.91421 2.75 12C2.75 17.0858 6.91421 21.25 12 21.25C17.0858 21.25 21.25 17.0858 21.25 12ZM22.75 12C22.75 17.9142 17.9142 22.75 12 22.75C6.08579 22.75 1.25 17.9142 1.25 12C1.25 6.08579 6.08579 1.25 12 1.25C17.9142 1.25 22.75 6.08579 22.75 12Z" fill="currentColor"/>
<path d="M14.2999 8.63973C14.5928 8.34691 15.0676 8.34686 15.3604 8.63973C15.6532 8.9326 15.6532 9.4074 15.3604 9.70027L9.70027 15.3604C9.4074 15.6532 8.9326 15.6532 8.63973 15.3604C8.34686 15.0676 8.34691 14.5928 8.63973 14.2999L14.2999 8.63973Z" fill="currentColor"/>
<path d="M8.63973 8.63973C8.93262 8.34683 9.40738 8.34683 9.70027 8.63973L15.3604 14.2999C15.6532 14.5928 15.6533 15.0676 15.3604 15.3604C15.0676 15.6533 14.5928 15.6532 14.2999 15.3604L8.63973 9.70027C8.34683 9.40738 8.34683 8.93262 8.63973 8.63973Z" fill="currentColor"/>
</svg>
