<svg width="24" height="24" viewBox="0 0 24 24" fill="none" xmlns="http://www.w3.org/2000/svg">
<path d="M15.7123 7.22703C16.0052 6.93414 16.4801 6.93414 16.773 7.22703C17.0658 7.51992 17.0658 7.9948 16.773 8.28769L8.28767 16.773C7.99478 17.0659 7.5199 17.0659 7.22701 16.773C6.93412 16.4801 6.93412 16.0052 7.22701 15.7123L15.7123 7.22703Z" fill="currentColor"/>
<path d="M15.7123 16.773L7.22701 8.28769C6.93412 7.9948 6.93412 7.51992 7.22701 7.22703C7.5199 6.93414 7.99478 6.93414 8.28767 7.22703L16.773 15.7123C17.0658 16.0052 17.0658 16.4801 16.773 16.773C16.4801 17.0659 16.0052 17.0659 15.7123 16.773Z" fill="currentColor"/>
</svg>
