<svg width="24" height="24" viewBox="0 0 24 24" fill="none" xmlns="http://www.w3.org/2000/svg">
<path d="M11 12.9393L11 1.75C11 1.33579 11.3358 1 11.75 1C12.1642 1 12.5 1.33579 12.5 1.75L12.5 12.9393L16.2197 9.21967C16.5126 8.92678 16.9874 8.92678 17.2803 9.21967C17.5732 9.51256 17.5732 9.98744 17.2803 10.2803L12.2803 15.2803C12.1397 15.421 11.9489 15.5 11.75 15.5C11.5511 15.5 11.3603 15.421 11.2197 15.2803L6.21967 10.2803C5.92678 9.98744 5.92678 9.51256 6.21967 9.21967C6.51256 8.92678 6.98744 8.92678 7.28033 9.21967L11 12.9393Z" fill="currentColor"/>
<path d="M21.75 11C22.1642 11 22.5 11.3358 22.5 11.75C22.5 17.6871 17.6871 22.5 11.75 22.5C5.81294 22.5 1 17.6871 1 11.75C1 11.3358 1.33579 11 1.75 11C2.16421 11 2.5 11.3358 2.5 11.75C2.5 16.8586 6.64137 21 11.75 21C16.8586 21 21 16.8586 21 11.75C21 11.3358 21.3358 11 21.75 11Z" fill="currentColor"/>
</svg>
