<svg width="24" height="24" viewBox="0 0 24 24" fill="none" xmlns="http://www.w3.org/2000/svg">
<path d="M9.5 1.25C9.5 1.11193 9.38807 1 9.25 1H5.11821C4.37513 0.999992 3.77197 0.999986 3.28273 1.03996C2.77778 1.08121 2.32851 1.16876 1.91103 1.38148C1.25247 1.71703 0.717035 2.25247 0.381478 2.91103C0.168762 3.32851 0.0812146 3.77778 0.0399586 4.28273C-1.28374e-05 4.77196 -6.9987e-06 5.3751 1.92159e-07 6.11817V17.3818C-6.9987e-06 18.1249 -1.28336e-05 18.728 0.0399586 19.2173C0.0812146 19.7222 0.168762 20.1715 0.381479 20.589C0.717035 21.2475 1.25247 21.783 1.91104 22.1185C2.32851 22.3312 2.77778 22.4188 3.28273 22.46C3.77195 22.5 4.37507 22.5 5.11811 22.5H12.1662C12.4634 22.5 12.7325 22.3245 12.8524 22.0526C12.9724 21.7807 12.9204 21.4636 12.7199 21.2442C12.0961 20.5613 11.5708 19.7277 11.1887 18.7519C10.9371 18.1092 10.9371 17.3908 11.1887 16.7481C12.2577 14.018 14.452 12.3859 16.8508 12.0606C17.2227 12.0102 17.5 11.6927 17.5 11.3174V9.25001C17.5 9.11194 17.3881 9.00001 17.25 9.00001H12.25C10.7312 9.00001 9.5 7.76879 9.5 6.25001V1.25Z" fill="currentColor"/>
<path d="M17.2421 7.49984V7.49984C17.1322 7.32045 16.9841 7.1729 16.8458 7.03502L16.8117 7.00104L11.4996 1.68892L11.465 1.65423C11.3271 1.51587 11.1795 1.36781 11.0002 1.25788V1.25788L11 6.25001C11 6.94036 11.5596 7.50001 12.25 7.50001L17.2421 7.49984Z" fill="currentColor"/>
<path d="M17.75 16.25C16.92 16.25 16.25 16.92 16.25 17.75C16.25 18.58 16.92 19.25 17.75 19.25C18.58 19.25 19.25 18.58 19.25 17.75C19.25 16.92 18.58 16.25 17.75 16.25Z" fill="currentColor"/>
<path fill-rule="evenodd" clip-rule="evenodd" d="M17.75 13.25C19.9568 13.25 22.1268 14.5973 23.1473 17.2039C23.2842 17.5536 23.2842 17.9465 23.1473 18.2961C22.1268 20.9027 19.9568 22.25 17.75 22.25C15.5432 22.25 13.3732 20.9027 12.3527 18.2961C12.2158 17.9465 12.2158 17.5536 12.3527 17.2039C13.3732 14.5973 15.5432 13.25 17.75 13.25ZM17.75 15.25C16.3677 15.25 15.25 16.3677 15.25 17.75C15.25 19.1323 16.3677 20.25 17.75 20.25C19.1323 20.25 20.25 19.1323 20.25 17.75C20.25 16.3677 19.1323 15.25 17.75 15.25Z" fill="currentColor"/>
</svg>
