<svg width="24" height="24" viewBox="0 0 24 24" fill="none" xmlns="http://www.w3.org/2000/svg">
<path d="M10.5 1.25C10.5 1.11193 10.3881 1 10.25 1H6.11821C5.37513 0.999992 4.77197 0.999986 4.28273 1.03996C3.77778 1.08121 3.32851 1.16876 2.91103 1.38148C2.25247 1.71703 1.71704 2.25247 1.38148 2.91103C1.16876 3.32851 1.08121 3.77778 1.03996 4.28273C0.999987 4.77196 0.999993 5.37512 1 6.11819V17.3818C0.999993 18.1249 0.999987 18.728 1.03996 19.2173C1.08121 19.7222 1.16876 20.1715 1.38148 20.589C1.71704 21.2475 2.25247 21.783 2.91104 22.1185C3.63952 22.4897 4.53015 22.4976 5.74869 22.4998C5.94783 22.5001 6.13893 22.4213 6.27987 22.2806C6.4208 22.1399 6.5 21.9489 6.5 21.7498V15.75C6.5 14.7835 7.2835 14 8.25 14H10C10.6463 14 11.2495 14.1745 11.7676 14.4784C12.0408 14.6386 12.3853 14.6099 12.6282 14.4067C12.9323 14.1524 13.3224 14 13.75 14H15.25C15.9336 14 16.5659 14.2102 17.0885 14.5696C17.3824 14.7716 17.7779 14.7388 18.0345 14.491C18.0868 14.4405 18.1422 14.3932 18.2004 14.3495C18.389 14.2078 18.5 13.9857 18.5 13.7498V9.25001C18.5 9.11194 18.3881 9.00001 18.25 9.00001H13.25C11.7312 9.00001 10.5 7.76879 10.5 6.25001V1.25Z" fill="currentColor"/>
<path d="M18.2421 7.49984C18.1322 7.32045 17.9841 7.17291 17.8458 7.03502L17.8117 7.00104L12.4989 1.68829L12.465 1.65423C12.3271 1.51587 12.1795 1.36781 12.0002 1.25788L12 6.25001C12 6.94036 12.5596 7.50001 13.25 7.50001L18.2421 7.49984Z" fill="currentColor"/>
<path fill-rule="evenodd" clip-rule="evenodd" d="M8.25 15C7.83579 15 7.5 15.3358 7.5 15.75V21.75C7.5 22.1642 7.83579 22.5 8.25 22.5C8.66421 22.5 9 22.1642 9 21.75V20.25C9 20.1119 9.11193 20 9.25 20H10C11.3807 20 12.5 18.8807 12.5 17.5C12.5 16.1193 11.3807 15 10 15H8.25ZM10 18.5H9.25C9.11193 18.5 9 18.3881 9 18.25V16.75C9 16.6119 9.11193 16.5 9.25 16.5H10C10.5523 16.5 11 16.9477 11 17.5C11 18.0523 10.5523 18.5 10 18.5Z" fill="currentColor"/>
<path fill-rule="evenodd" clip-rule="evenodd" d="M13 15.75C13 15.3358 13.3358 15 13.75 15H15.25C16.4926 15 17.5 16.0074 17.5 17.25V20.25C17.5 21.4927 16.4926 22.5 15.25 22.5H13.75C13.5511 22.5 13.3603 22.421 13.2197 22.2803C13.079 22.1397 13 21.9489 13 21.75V15.75ZM14.75 16.5C14.6119 16.5 14.5 16.6119 14.5 16.75V20.75C14.5 20.8881 14.6119 21 14.75 21H15.25C15.6642 21 16 20.6642 16 20.25V17.25C16 16.8358 15.6642 16.5 15.25 16.5H14.75Z" fill="currentColor"/>
<path d="M19.25 15C18.8358 15 18.5 15.3358 18.5 15.75V21.75C18.5 22.1642 18.8358 22.5 19.25 22.5C19.6642 22.5 20 22.1642 20 21.75V20C20 19.8619 20.1119 19.75 20.25 19.75H21.75C22.1642 19.75 22.5 19.4142 22.5 19C22.5 18.5858 22.1642 18.25 21.75 18.25H20.25C20.1119 18.25 20 18.1381 20 18V16.75C20 16.6119 20.1119 16.5 20.25 16.5H21.75C22.1642 16.5 22.5 16.1642 22.5 15.75C22.5 15.3358 22.1642 15 21.75 15H19.25Z" fill="currentColor"/>
</svg>
