<svg width="24" height="24" viewBox="0 0 24 24" fill="none" xmlns="http://www.w3.org/2000/svg">
<path d="M17.8115 4.47C17.7315 4.47 17.6565 4.45 17.5815 4.415C15.6665 3.425 14.0015 3 12.0115 3C10.0265 3 8.15649 3.475 6.44149 4.41C6.32563 4.46495 6.19313 4.47347 6.07119 4.43383C5.94924 4.39419 5.84708 4.30938 5.78568 4.19681C5.72428 4.08423 5.70828 3.95243 5.74097 3.82844C5.77366 3.70445 5.85257 3.59766 5.96149 3.53C7.82649 2.515 9.86149 2 12.0115 2C14.1415 2 16.0015 2.47 18.0415 3.525C18.2865 3.65 18.3815 3.955 18.2565 4.2C18.1665 4.37 17.9915 4.47 17.8115 4.47ZM3.50149 9.72C3.40149 9.72 3.30149 9.69 3.21149 9.63C3.1579 9.59231 3.11228 9.54441 3.07723 9.48905C3.04219 9.43369 3.01841 9.37197 3.00726 9.3074C2.99611 9.24284 2.99782 9.17671 3.01227 9.11281C3.02672 9.0489 3.05364 8.98848 3.09149 8.935C4.08149 7.535 5.34649 6.435 6.84649 5.66C9.99149 4.035 14.0115 4.03 17.1615 5.65C18.6565 6.42 19.9165 7.51 20.9115 8.9C21.0715 9.125 21.0215 9.435 20.7965 9.595C20.5715 9.755 20.2565 9.705 20.0965 9.48C19.1965 8.22 18.0565 7.23 16.7065 6.54C13.8365 5.065 10.1715 5.07 7.30649 6.55C5.95149 7.25 4.80649 8.245 3.91149 9.515C3.81149 9.65 3.65649 9.72 3.50149 9.72ZM9.75649 21.785C9.62649 21.785 9.50149 21.735 9.40149 21.635C8.53649 20.76 8.06649 20.205 7.39149 19C6.70149 17.77 6.33649 16.265 6.33649 14.655C6.33649 11.685 8.87649 9.265 12.0015 9.265C15.1265 9.265 17.6665 11.68 17.6665 14.655C17.6665 14.93 17.4415 15.155 17.1665 15.155C16.8915 15.155 16.6665 14.93 16.6665 14.655C16.6665 12.235 14.5765 10.265 12.0015 10.265C9.43149 10.265 7.33649 12.235 7.33649 14.655C7.33649 16.095 7.65649 17.425 8.26149 18.51C8.90649 19.66 9.33649 20.155 10.1065 20.93C10.3015 21.125 10.3015 21.445 10.1015 21.635C10.0115 21.74 9.88149 21.785 9.75649 21.785ZM16.9215 19.935C15.7315 19.935 14.6865 19.635 13.8215 19.05C12.3365 18.04 11.4465 16.4 11.4465 14.66C11.4465 14.385 11.6715 14.16 11.9465 14.16C12.2215 14.16 12.4465 14.385 12.4465 14.66C12.4465 16.065 13.1715 17.395 14.3865 18.22C15.0915 18.7 15.9215 18.935 16.9215 18.935C17.1615 18.935 17.5665 18.91 17.9665 18.84C18.2365 18.79 18.4965 18.975 18.5465 19.245C18.5965 19.515 18.4115 19.775 18.1415 19.825C17.5565 19.93 17.0615 19.935 16.9215 19.935ZM14.9065 22C14.8615 22 14.8165 21.995 14.7765 21.98C13.1815 21.545 12.1415 20.955 11.0615 19.88C10.3728 19.1968 9.82669 18.3834 9.45502 17.4873C9.08335 16.5912 8.8935 15.6301 8.89649 14.66C8.89649 13.035 10.2765 11.715 11.9765 11.715C13.6765 11.715 15.0565 13.035 15.0565 14.66C15.0565 15.73 15.9915 16.605 17.1365 16.605C18.2815 16.605 19.2165 15.735 19.2165 14.66C19.2165 10.89 15.9665 7.825 11.9715 7.825C9.12649 7.825 6.53149 9.405 5.36149 11.855C4.97149 12.665 4.77649 13.61 4.77649 14.66C4.77649 15.44 4.84649 16.67 5.44149 18.265C5.53649 18.525 5.40649 18.81 5.14649 18.91C4.88649 19.005 4.60149 18.875 4.50149 18.615C4.01149 17.3 3.77149 16.01 3.77149 14.66C3.77149 13.46 4.00149 12.37 4.45649 11.425C5.79149 8.635 8.74149 6.83 11.9665 6.83C16.5115 6.83 20.2115 10.345 20.2115 14.665C20.2115 16.29 18.8265 17.61 17.1315 17.61C15.4365 17.61 14.0515 16.29 14.0515 14.665C14.0515 13.595 13.1165 12.72 11.9715 12.72C10.8265 12.72 9.89149 13.59 9.89149 14.665C9.89149 16.37 10.5565 17.975 11.7615 19.175C12.7065 20.115 13.6265 20.635 15.0365 21.02C15.3015 21.095 15.4615 21.37 15.3865 21.635C15.3265 21.855 15.1265 22 14.9065 22Z" fill="#353566"/>
</svg>
