<svg width="24" height="24" viewBox="0 0 24 24" fill="none" xmlns="http://www.w3.org/2000/svg">
<path fill-rule="evenodd" clip-rule="evenodd" d="M1 9.22438C1 5.4358 3.60795 2 7.64333 2C9.51025 2 10.8558 2.81969 11.75 3.66063C12.6442 2.81969 13.9898 2 15.8567 2C19.8921 2 22.5 5.4358 22.5 9.22438C22.5 13.051 20.1895 16.12 17.8121 18.2436C15.4337 20.3683 12.8463 21.6751 11.9872 21.9615L11.75 22.0406L11.5128 21.9615C10.6537 21.6751 8.06635 20.3683 5.68786 18.2436C3.31046 16.12 1 13.051 1 9.22438ZM7.64333 3.5C4.62317 3.5 2.5 6.0642 2.5 9.22438C2.5 12.4233 4.43954 15.1172 6.68714 17.125C8.71385 18.9354 10.8758 20.0836 11.75 20.4478C12.6242 20.0836 14.7861 18.9354 16.8129 17.125C19.0605 15.1172 21 12.4233 21 9.22438C21 6.0642 18.8768 3.5 15.8567 3.5C14.1441 3.5 13.0103 4.41987 12.3231 5.23383L11.75 5.91259L11.1769 5.23383C10.4897 4.41987 9.35595 3.5 7.64333 3.5Z" fill="currentColor"/>
</svg>
