<svg width="24" height="24" viewBox="0 0 24 24" fill="none" xmlns="http://www.w3.org/2000/svg">
<path fill-rule="evenodd" clip-rule="evenodd" d="M10.843 1.11134C11.4386 0.962887 12.0615 0.962887 12.657 1.11134C13.3336 1.27999 13.938 1.70345 14.8137 2.31707C14.8529 2.34449 14.8925 2.37228 14.9328 2.40044L19.7915 5.80158C19.8229 5.82352 19.8538 5.84517 19.8843 5.86653C20.6695 6.41583 21.1912 6.78078 21.5759 7.26432C21.9156 7.69137 22.17 8.17985 22.325 8.70309C22.5005 9.29554 22.5003 9.93218 22.5001 10.8904C22.5 10.9277 22.5 10.9654 22.5 11.0037V16.9801C22.5 17.7929 22.5001 18.4485 22.4567 18.9794C22.412 19.5261 22.3177 20.0062 22.0913 20.4504C21.7318 21.156 21.1581 21.7297 20.4525 22.0892C20.0083 22.3156 19.5281 22.4099 18.9815 22.4546C18.4506 22.498 17.795 22.498 16.9822 22.498H16.3238C16.0663 22.498 15.8299 22.498 15.6322 22.4818C15.419 22.4644 15.1859 22.4246 14.9556 22.3072C14.6263 22.1394 14.3586 21.8717 14.1908 21.5424C14.0734 21.3121 14.0336 21.079 14.0162 20.8658C14 20.6682 14 20.4317 14 20.1742L14 16.148C14 15.7156 13.9995 15.4364 13.9821 15.2239C13.9654 15.0202 13.9372 14.9446 13.9183 14.9075C13.8464 14.7664 13.7317 14.6517 13.5905 14.5798C13.5534 14.5609 13.4779 14.5326 13.2742 14.516C13.0617 14.4986 12.7825 14.498 12.35 14.498H11.15C10.7176 14.498 10.4384 14.4986 10.2259 14.516C10.0222 14.5326 9.94663 14.5609 9.90955 14.5798C9.76843 14.6517 9.65369 14.7664 9.58179 14.9075C9.56289 14.9446 9.53463 15.0202 9.51799 15.2239C9.50062 15.4364 9.50004 15.7156 9.50004 16.148L9.50004 20.1742C9.50006 20.4317 9.50008 20.6681 9.48392 20.8658C9.46651 21.079 9.42665 21.3121 9.3093 21.5424C9.14152 21.8717 8.87381 22.1394 8.54452 22.3072C8.31422 22.4246 8.08104 22.4644 7.86791 22.4818C7.67023 22.498 7.43375 22.498 7.17627 22.498H6.51792C5.70509 22.498 5.04948 22.498 4.51857 22.4546C3.97193 22.4099 3.49179 22.3156 3.04758 22.0892C2.34197 21.7297 1.76829 21.156 1.40877 20.4504C1.18242 20.0062 1.08807 19.5261 1.0434 18.9794C1.00003 18.4485 1.00003 17.7929 1.00004 16.9801L1.00004 11.0037C1.00004 10.9654 1.00003 10.9277 1.00002 10.8904C0.999761 9.93218 0.999588 9.29554 1.17511 8.70309C1.33012 8.17985 1.58445 7.69137 1.92421 7.26432C2.30891 6.78078 2.83057 6.41583 3.61571 5.86655C3.64626 5.84518 3.6772 5.82353 3.70855 5.80158L8.56732 2.40044C8.60756 2.37228 8.64722 2.34449 8.68634 2.31708C9.56211 1.70345 10.1665 1.27999 10.843 1.11134ZM12.2942 2.5668C11.9369 2.47773 11.5632 2.47773 11.2058 2.5668C10.8339 2.65953 10.4701 2.89948 9.42751 3.62929L4.56875 7.03043C3.65723 7.66849 3.33036 7.90619 3.09803 8.1982C2.87819 8.47453 2.71362 8.79061 2.61332 9.12918C2.50732 9.48697 2.50004 9.89106 2.50004 11.0037V16.948C2.50004 17.8004 2.50062 18.3947 2.53842 18.8573C2.5755 19.3112 2.64464 19.5719 2.74528 19.7694C2.96099 20.1928 3.3052 20.537 3.72856 20.7527C3.92608 20.8534 4.18684 20.9225 4.64072 20.9596C5.10335 20.9974 5.69759 20.998 6.55004 20.998H7.15004C7.44244 20.998 7.61664 20.9974 7.74576 20.9868C7.82458 20.9804 7.8577 20.9719 7.86658 20.9691C7.91122 20.9456 7.9477 20.9091 7.97122 20.8645C7.97397 20.8556 7.98247 20.8225 7.98891 20.7437C7.99946 20.6146 8.00004 20.4404 8.00004 20.148L8.00004 16.1191C8.00003 15.7238 8.00001 15.3827 8.02297 15.1018C8.04719 14.8053 8.10068 14.5103 8.24528 14.2266C8.46099 13.8032 8.8052 13.459 9.22856 13.2433C9.51235 13.0987 9.80726 13.0452 10.1038 13.021C10.3847 12.998 10.7258 12.998 11.1211 12.998H12.379C12.7743 12.998 13.1154 12.998 13.3963 13.021C13.6928 13.0452 13.9877 13.0987 14.2715 13.2433C14.6949 13.459 15.0391 13.8032 15.2548 14.2266C15.3994 14.5103 15.4529 14.8053 15.4771 15.1018C15.5001 15.3827 15.5001 15.7238 15.5 16.1191V20.148C15.5 20.4404 15.5006 20.6146 15.5112 20.7437C15.5176 20.8225 15.5261 20.8556 15.5289 20.8645C15.5524 20.9091 15.5889 20.9456 15.6335 20.9691C15.6424 20.9719 15.6755 20.9804 15.7543 20.9868C15.8834 20.9974 16.0576 20.998 16.35 20.998H16.95C17.8025 20.998 18.3967 20.9974 18.8594 20.9596C19.3132 20.9225 19.574 20.8534 19.7715 20.7527C20.1949 20.537 20.5391 20.1928 20.7548 19.7694C20.8554 19.5719 20.9246 19.3112 20.9617 18.8573C20.9995 18.3947 21 17.8004 21 16.948V11.0037C21 9.89106 20.9928 9.48697 20.8868 9.12918C20.7865 8.79061 20.6219 8.47453 20.402 8.1982C20.1697 7.90619 19.8428 7.66849 18.9313 7.03043L14.0726 3.62929C13.03 2.89948 12.6662 2.65953 12.2942 2.5668ZM15.6309 20.9682L15.6324 20.9688L15.6309 20.9682ZM7.97031 20.8671L7.97087 20.8656L7.97031 20.8671ZM7.86916 20.9682L7.86768 20.9688L7.86916 20.9682Z" fill="#353566"/>
</svg>
