<svg width="24" height="24" viewBox="0 0 24 24" fill="none" xmlns="http://www.w3.org/2000/svg">
<path fill-rule="evenodd" clip-rule="evenodd" d="M13.2641 1.34419C12.3072 0.885266 11.1938 0.885271 10.237 1.3442L1.87998 5.35235C0.706993 5.91493 0.707053 7.58504 1.88008 8.14754L10.2372 12.155C11.1939 12.6138 12.3071 12.6138 13.2639 12.155L21.6211 8.14754C22.7941 7.58505 22.7942 5.91493 21.6212 5.35235L13.2641 1.34419ZM10.8856 2.69669C11.4324 2.43444 12.0686 2.43444 12.6154 2.69668L20.9725 6.70484C20.9824 6.70959 20.9872 6.71356 20.9893 6.7154C20.9914 6.71736 20.9929 6.71924 20.9942 6.72142C20.9971 6.72631 21.0009 6.73612 21.0009 6.74992C21.0009 6.76372 20.9971 6.77353 20.9942 6.77842C20.9929 6.7806 20.9914 6.78248 20.9892 6.78445C20.9872 6.78628 20.9824 6.79025 20.9725 6.795L12.6153 10.8025C12.0686 11.0646 11.4325 11.0646 10.8858 10.8025L2.52866 6.795C2.51875 6.79025 2.51393 6.78628 2.51193 6.78444C2.50978 6.78248 2.50828 6.7806 2.50698 6.77842C2.50404 6.77353 2.50028 6.76372 2.50027 6.74992C2.50027 6.73612 2.50404 6.72631 2.50698 6.72142C2.50828 6.71924 2.50978 6.71736 2.51193 6.7154C2.51393 6.71356 2.51874 6.70959 2.52865 6.70484L10.8856 2.69669Z" fill="#353566"/>
<path d="M3.70755 10.3074C3.88668 10.6808 3.72912 11.1288 3.35564 11.3079L2.52838 11.7047C2.51847 11.7095 2.51366 11.7134 2.51165 11.7153C2.5095 11.7172 2.50801 11.7191 2.5067 11.7213C2.50377 11.7262 2.5 11.736 2.5 11.7498C2.5 11.7636 2.50377 11.7734 2.5067 11.7783C2.50801 11.7805 2.5095 11.7824 2.51165 11.7843C2.51366 11.7862 2.51847 11.7901 2.52838 11.7949L10.8855 15.8023C11.4322 16.0645 12.0683 16.0645 12.615 15.8023L20.9722 11.7949C20.9822 11.7901 20.987 11.7862 20.989 11.7843C20.9911 11.7824 20.9926 11.7805 20.9939 11.7783C20.9969 11.7734 21.0006 11.7636 21.0006 11.7498C21.0006 11.736 20.9969 11.7262 20.9939 11.7213C20.9926 11.7191 20.9911 11.7172 20.989 11.7153C20.987 11.7134 20.9822 11.7095 20.9722 11.7047L20.1453 11.3081C19.7718 11.129 19.6143 10.681 19.7934 10.3075C19.9725 9.93405 20.4205 9.7765 20.794 9.95562L21.6209 10.3522C22.7939 10.9148 22.7938 12.5849 21.6208 13.1474L13.2636 17.1549C12.3068 17.6136 11.1936 17.6136 10.2369 17.1549L1.87981 13.1474C0.706779 12.5849 0.706719 10.9148 1.8797 10.3522L2.70697 9.95546C3.08045 9.77633 3.52842 9.93389 3.70755 10.3074Z" fill="#353566"/>
<path d="M3.70755 15.3074C3.88668 15.6808 3.72912 16.1288 3.35564 16.3079L2.52838 16.7047C2.51847 16.7095 2.51366 16.7134 2.51165 16.7153C2.5095 16.7172 2.50801 16.7191 2.5067 16.7213C2.50377 16.7262 2.5 16.736 2.5 16.7498C2.5 16.7636 2.50377 16.7734 2.5067 16.7783C2.50801 16.7805 2.5095 16.7824 2.51165 16.7843C2.51366 16.7862 2.51847 16.7901 2.52838 16.7949L10.8855 20.8023C11.4322 21.0645 12.0683 21.0645 12.615 20.8023L20.9722 16.7949C20.9822 16.7901 20.987 16.7862 20.989 16.7843C20.9911 16.7824 20.9926 16.7805 20.9939 16.7783C20.9969 16.7734 21.0006 16.7636 21.0006 16.7498C21.0006 16.736 20.9969 16.7262 20.9939 16.7213L20.9914 16.7178L20.989 16.7153C20.987 16.7134 20.9822 16.7095 20.9722 16.7047L20.1453 16.3081C19.7718 16.129 19.6143 15.681 19.7934 15.3075C19.9725 14.9341 20.4205 14.7765 20.794 14.9556L21.6209 15.3522C22.7939 15.9148 22.7938 17.5849 21.6208 18.1474L13.2636 22.1549C12.3068 22.6136 11.1936 22.6136 10.2369 22.1549L1.87981 18.1474C0.706779 17.5849 0.706719 15.9148 1.8797 15.3522L2.70697 14.9555C3.08045 14.7763 3.52842 14.9339 3.70755 15.3074Z" fill="#353566"/>
</svg>
