<svg width="24" height="24" viewBox="0 0 24 24" fill="none" xmlns="http://www.w3.org/2000/svg">
<path fill-rule="evenodd" clip-rule="evenodd" d="M11.75 1C8.8505 1 6.5 3.35051 6.5 6.25V8.0449C5.96103 8.09018 5.48673 8.18495 5.04754 8.40873C4.34193 8.76825 3.76825 9.34193 3.40873 10.0475C3.18239 10.4918 3.08803 10.9719 3.04336 11.5185C2.99999 12.0494 2.99999 12.7051 3 13.5179V16.9821C2.99999 17.7949 2.99999 18.4506 3.04336 18.9815C3.08803 19.5281 3.18239 20.0082 3.40873 20.4525C3.76825 21.1581 4.34193 21.7318 5.04754 22.0913C5.49175 22.3176 5.9719 22.412 6.51853 22.4566C7.04944 22.5 7.70505 22.5 8.51788 22.5H14.9821C15.795 22.5 16.4506 22.5 16.9815 22.4566C17.5281 22.412 18.0082 22.3176 18.4525 22.0913C19.1581 21.7318 19.7318 21.1581 20.0913 20.4525C20.3176 20.0082 20.412 19.5281 20.4566 18.9815C20.5 18.4506 20.5 17.795 20.5 16.9821V13.5179C20.5 12.705 20.5 12.0494 20.4566 11.5185C20.412 10.9719 20.3176 10.4918 20.0913 10.0475C19.7318 9.34193 19.1581 8.76825 18.4525 8.40873C18.0133 8.18495 17.539 8.09018 17 8.0449V6.25C17 3.35051 14.6495 1 11.75 1ZM15.5 8.00047V6.25C15.5 4.17893 13.8211 2.5 11.75 2.5C9.67893 2.5 8 4.17893 8 6.25V8.00047C8.16513 8 8.33764 8 8.51787 8H14.9821C15.1623 8 15.3349 8 15.5 8.00047ZM5.72852 9.74524C5.92604 9.6446 6.18681 9.57547 6.64068 9.53838C7.10331 9.50058 7.69755 9.5 8.55 9.5H14.95C15.8025 9.5 16.3967 9.50058 16.8593 9.53838C17.3132 9.57547 17.574 9.6446 17.7715 9.74524C18.1948 9.96095 18.539 10.3052 18.7548 10.7285C18.8554 10.926 18.9245 11.1868 18.9616 11.6407C18.9994 12.1033 19 12.6975 19 13.55V16.95C19 17.8025 18.9994 18.3967 18.9616 18.8593C18.9245 19.3132 18.8554 19.574 18.7548 19.7715C18.539 20.1948 18.1948 20.539 17.7715 20.7548C17.574 20.8554 17.3132 20.9245 16.8593 20.9616C16.3967 20.9994 15.8025 21 14.95 21H8.55C7.69755 21 7.10331 20.9994 6.64068 20.9616C6.18681 20.9245 5.92604 20.8554 5.72852 20.7548C5.30516 20.539 4.96095 20.1948 4.74524 19.7715C4.6446 19.574 4.57547 19.3132 4.53838 18.8593C4.50058 18.3967 4.5 17.8025 4.5 16.95V13.55C4.5 12.6975 4.50058 12.1033 4.53838 11.6407C4.57547 11.1868 4.6446 10.926 4.74524 10.7285C4.96095 10.3052 5.30516 9.96095 5.72852 9.74524Z" fill="#353566"/>
</svg>
