<svg width="24" height="24" viewBox="0 0 24 24" fill="none" xmlns="http://www.w3.org/2000/svg">
<path d="M21.2502 10.2402C21.2502 6.15226 17.6853 2.75004 13.1701 2.75C8.82269 2.75 5.35734 5.90381 5.10562 9.78711C5.84538 9.49669 6.65348 9.33984 7.50015 9.33984C10.9058 9.33992 13.7502 11.9294 13.7502 15.2305C13.7501 16.1247 13.5335 16.972 13.1515 17.7295L13.1701 17.7305L13.2707 17.7363C13.37 17.7498 13.4661 17.7834 13.5529 17.835L17.7433 20.3252L17.7482 20.3281C17.9126 20.4277 18.1402 20.3016 18.1154 20.082L17.7257 16.9219C17.6918 16.6467 17.8122 16.375 18.0392 16.2158C19.9991 14.8421 21.2501 12.6718 21.2502 10.2402ZM22.7502 10.2402C22.7501 13.0486 21.3792 15.5338 19.2668 17.1709L19.6046 19.8984V19.9004C19.7777 21.3374 18.2308 22.3685 16.9767 21.6143L12.9572 19.2256C12.5379 19.2176 12.1251 19.1882 11.7189 19.1328C11.4474 19.0958 11.2172 18.9141 11.1193 18.6582C11.0214 18.4022 11.0716 18.1131 11.2492 17.9043C11.8813 17.161 12.25 16.2307 12.2502 15.2305C12.2502 12.8517 10.1744 10.8399 7.50015 10.8398C6.48445 10.8398 5.55647 11.1279 4.78922 11.6279C4.57208 11.7694 4.29749 11.7893 4.06265 11.6797C3.82793 11.5701 3.66593 11.347 3.63492 11.0898C3.60025 10.801 3.59 10.5189 3.59 10.2402C3.59 5.22824 7.92532 1.25 13.1701 1.25C18.4148 1.25004 22.7502 5.22826 22.7502 10.2402Z" fill="currentColor"/>
<path d="M12.2502 15.2305C12.25 12.9261 10.302 10.9661 7.74902 10.8459L7.50015 10.8398C6.48445 10.8398 5.55647 11.1279 4.78922 11.6279L4.78418 11.632C3.54014 12.4268 2.75011 13.7484 2.75 15.2297C2.75 16.643 3.47212 17.9119 4.62793 18.7141C4.85726 18.8734 4.97932 19.147 4.94434 19.424L4.72656 21.133L7.11719 19.715L7.20703 19.6701C7.29944 19.6309 7.39892 19.6096 7.5 19.6096C9.04178 19.6096 10.3972 18.9353 11.2412 17.9123L11.2492 17.9043C11.8813 17.161 12.25 16.2307 12.2502 15.2305ZM13.7502 15.2305C13.7502 16.61 13.2393 17.8796 12.3916 18.8762L12.3906 18.8752C11.2958 20.197 9.6035 21.0434 7.71582 21.1037L5.27344 22.5549L5.27246 22.5539C4.28096 23.1526 3.07497 22.3181 3.20508 21.2121L3.20605 21.2053L3.40137 19.6642C2.08912 18.5974 1.25 17.0129 1.25 15.2297C1.25011 13.1934 2.33792 11.4168 3.9707 10.3713L4.16309 10.2512C5.13547 9.66664 6.27752 9.33984 7.50015 9.33984C10.9058 9.33992 13.7502 11.9294 13.7502 15.2305Z" fill="currentColor"/>
</svg>
