<svg width="24" height="24" viewBox="0 0 24 24" fill="none" xmlns="http://www.w3.org/2000/svg">
<path d="M7 16.75C7 17.1642 7.33579 17.5 7.75 17.5H15.75C16.1642 17.5 16.5 17.1642 16.5 16.75C16.5 16.3358 16.1642 16 15.75 16H7.75C7.33579 16 7 16.3358 7 16.75Z" fill="currentColor"/>
<path d="M7.75 13.5C7.33579 13.5 7 13.1642 7 12.75C7 12.3358 7.33579 12 7.75 12H15.75C16.1642 12 16.5 12.3358 16.5 12.75C16.5 13.1642 16.1642 13.5 15.75 13.5H7.75Z" fill="currentColor"/>
<path d="M7 8.75C7 9.16421 7.33579 9.5 7.75 9.5H11.75C12.1642 9.5 12.5 9.16421 12.5 8.75C12.5 8.33579 12.1642 8 11.75 8H7.75C7.33579 8 7 8.33579 7 8.75Z" fill="currentColor"/>
<path fill-rule="evenodd" clip-rule="evenodd" d="M17 0.75C17 0.335786 16.6642 0 16.25 0C15.8358 0 15.5 0.335786 15.5 0.75V1.50007L12.5 1.5V0.75C12.5 0.335786 12.1642 0 11.75 0C11.3358 0 11 0.335786 11 0.75V1.5H8.31739C8.20914 1.5 8.10336 1.5 8 1.50007V0.75C8 0.335786 7.66421 0 7.25 0C6.83579 0 6.5 0.335786 6.5 0.75V1.52032C6.31961 1.52746 6.14992 1.53712 5.99013 1.55018C5.36012 1.60165 4.81824 1.70963 4.32054 1.96322C3.52085 2.37068 2.87068 3.02085 2.46322 3.82054C2.20963 4.31824 2.10165 4.86012 2.05018 5.49013C1.99999 6.10439 1.99999 6.86494 2 7.81738V17.1826C1.99999 18.1351 1.99999 18.8956 2.05018 19.5099C2.10165 20.1399 2.20963 20.6818 2.46322 21.1795C2.87068 21.9791 3.52085 22.6293 4.32054 23.0368C4.81824 23.2904 5.36012 23.3983 5.99013 23.4498C6.60438 23.5 7.3649 23.5 8.3173 23.5H15.1826C16.135 23.5 16.8956 23.5 17.5099 23.4498C18.1399 23.3983 18.6818 23.2904 19.1795 23.0368C19.9791 22.6293 20.6293 21.9791 21.0368 21.1795C21.2904 20.6818 21.3983 20.1399 21.4498 19.5099C21.5 18.8956 21.5 18.1351 21.5 17.1827V7.81737C21.5 6.86496 21.5 6.10438 21.4498 5.49013C21.3983 4.86012 21.2904 4.31824 21.0368 3.82054C20.6293 3.02085 19.9791 2.37068 19.1795 1.96322C18.6818 1.70963 18.1399 1.60165 17.5099 1.55018C17.3501 1.53712 17.1804 1.52746 17 1.52032V0.75ZM6.5 3.02152C6.36219 3.02756 6.23346 3.03529 6.11228 3.04519C5.57503 3.08909 5.25252 3.17184 5.00153 3.29973C4.48408 3.56338 4.06338 3.98408 3.79973 4.50153C3.67184 4.75252 3.58909 5.07503 3.54519 5.61228C3.50058 6.15829 3.5 6.85753 3.5 7.85V17.15C3.5 18.1425 3.50058 18.8417 3.54519 19.3877C3.58909 19.925 3.67184 20.2475 3.79973 20.4985C4.06338 21.0159 4.48408 21.4366 5.00153 21.7003C5.25252 21.8282 5.57503 21.9109 6.11228 21.9548C6.65829 21.9994 7.35753 22 8.35 22H15.15C16.1425 22 16.8417 21.9994 17.3877 21.9548C17.925 21.9109 18.2475 21.8282 18.4985 21.7003C19.0159 21.4366 19.4366 21.0159 19.7003 20.4985C19.8282 20.2475 19.9109 19.925 19.9548 19.3877C19.9994 18.8417 20 18.1425 20 17.15V7.85C20 6.85753 19.9994 6.15829 19.9548 5.61228C19.9109 5.07503 19.8282 4.75252 19.7003 4.50153C19.4366 3.98408 19.0159 3.56338 18.4985 3.29973C18.2475 3.17184 17.925 3.08909 17.3877 3.04519C17.2665 3.03529 17.1378 3.02756 17 3.02152V3.75C17 4.16421 16.6642 4.5 16.25 4.5C15.8358 4.5 15.5 4.16421 15.5 3.75V3.0001L12.5 3V3.75C12.5 4.16421 12.1642 4.5 11.75 4.5C11.3358 4.5 11 4.16421 11 3.75V3H8.35C8.22906 3 8.11248 3.00001 8 3.0001V3.75C8 4.16421 7.66421 4.5 7.25 4.5C6.83579 4.5 6.5 4.16421 6.5 3.75V3.02152Z" fill="currentColor"/>
</svg>
