<svg width="24" height="24" viewBox="0 0 24 24" fill="none" xmlns="http://www.w3.org/2000/svg">
<path d="M17.2699 8.91C17.2699 6.02422 14.9057 3.66 12.0199 3.66C9.12417 3.66004 6.76992 6.01424 6.76992 8.91V11.7997C6.76992 12.195 6.68829 12.6513 6.57363 13.0643C6.45892 13.4775 6.29443 13.908 6.09414 14.244L6.09219 14.2469L4.94278 16.1571C4.69402 16.5706 4.67988 16.9556 4.78945 17.2518C4.89948 17.5489 5.16297 17.8342 5.62051 17.9891C9.77574 19.377 14.2574 19.3774 18.4125 17.9891L18.4145 17.9881C19.1653 17.7399 19.5012 16.8465 19.0873 16.1561L17.9379 14.2469L17.9301 14.2352C17.738 13.9023 17.5773 13.4746 17.4643 13.0623C17.3514 12.6509 17.2699 12.1948 17.2699 11.7997V8.91ZM18.7699 11.7997C18.7699 12.0145 18.8184 12.3298 18.9105 12.6659C19.0025 13.0009 19.122 13.2982 19.2299 13.4852L20.3725 15.3827L20.3734 15.3846C21.2783 16.8935 20.5544 18.8573 18.8871 19.41L18.8881 19.411C14.4238 20.9025 9.60625 20.9025 5.14199 19.411L5.13906 19.41C4.29708 19.1249 3.66568 18.5358 3.3832 17.7733C3.10042 17.0096 3.19664 16.1498 3.65762 15.3836L4.80703 13.4735C4.91636 13.2893 5.03594 12.9957 5.12832 12.6629C5.22115 12.3285 5.26992 12.0143 5.26992 11.7997V8.91C5.26992 5.18581 8.29574 2.16004 12.0199 2.16C15.7341 2.16 18.7699 5.19579 18.7699 8.91V11.7997Z" fill="#353566"/>
<path d="M12.0196 1.19C13.1767 1.19 14.169 1.90705 14.5684 2.92633C14.6727 3.19238 14.6165 3.49459 14.4239 3.70563C14.2313 3.91659 13.9355 3.99998 13.6612 3.92047C13.3838 3.83993 13.1032 3.77908 12.8194 3.74469H12.8175C11.953 3.63664 11.1354 3.70057 10.379 3.92047C10.1046 4.00005 9.80893 3.91657 9.61628 3.70563C9.42356 3.49458 9.36747 3.19243 9.47175 2.92633C9.87116 1.90718 10.8626 1.19016 12.0196 1.19Z" fill="#353566"/>
<path d="M9.76999 19.06C9.76999 19.6725 10.0246 20.2443 10.4301 20.6498C10.8357 21.0554 11.4075 21.31 12.02 21.31C13.2558 21.31 14.27 20.2958 14.27 19.06H15.77C15.77 21.1242 14.0842 22.81 12.02 22.81C10.9925 22.81 10.0441 22.3849 9.3696 21.7104C8.69513 21.0359 8.26999 20.0875 8.26999 19.06H9.76999Z" fill="#353566"/>
</svg>
