<svg width="24" height="24" viewBox="0 0 24 24" fill="none" xmlns="http://www.w3.org/2000/svg">
<path fill-rule="evenodd" clip-rule="evenodd" d="M0 11.75C0 5.26065 5.26065 0 11.75 0C18.2393 0 23.5 5.26065 23.5 11.75C23.5 18.2393 18.2393 23.5 11.75 23.5C5.26065 23.5 0 18.2393 0 11.75ZM11.75 16.5C11.3358 16.5 11 16.1642 11 15.75V12.5H7.75C7.33579 12.5 7 12.1642 7 11.75C7 11.3358 7.33579 11 7.75 11H11V7.75C11 7.33579 11.3358 7 11.75 7C12.1642 7 12.5 7.33579 12.5 7.75V11H15.75C16.1642 11 16.5 11.3358 16.5 11.75C16.5 12.1642 16.1642 12.5 15.75 12.5H12.5V15.75C12.5 16.1642 12.1642 16.5 11.75 16.5Z" fill="currentColor"/>
</svg>
