<svg width="24" height="24" viewBox="0 0 24 24" fill="none" xmlns="http://www.w3.org/2000/svg">
<path d="M13.5532 3.13155C12.8259 1.62281 10.6772 1.62282 9.94997 3.13155L7.8192 7.55186C7.78256 7.62788 7.71003 7.68028 7.62635 7.6912L2.74353 8.32835C1.06954 8.54678 0.40249 10.613 1.63273 11.769L5.18951 15.1113C5.25163 15.1697 5.27973 15.2557 5.26405 15.3395L4.3686 20.1265C4.05971 21.7778 5.80115 23.0511 7.28107 22.256L11.6333 19.9178C11.7071 19.8781 11.796 19.8781 11.8699 19.9178L16.2221 22.256C17.702 23.0511 19.4435 21.7778 19.1346 20.1265L18.2391 15.3395C18.2234 15.2557 18.2515 15.1697 18.3137 15.1113L21.8704 11.769C23.1007 10.613 22.4336 8.54678 20.7596 8.32835L15.8768 7.6912C15.7931 7.68028 15.7206 7.62788 15.684 7.55186L13.5532 3.13155Z" fill="currentColor"/>
</svg>
