<svg width="24" height="24" viewBox="0 0 24 24" fill="none" xmlns="http://www.w3.org/2000/svg">
<path d="M11.75 2.5C9.66677 2.5 7.74633 3.18778 6.20042 4.34896C5.57246 4.82064 4.86166 5.52778 4.23433 6.25232C4.01205 6.50904 3.8057 6.76164 3.62142 7H7.25C7.66421 7 8 7.33579 8 7.75C8 8.16421 7.66421 8.5 7.25 8.5H2.22183C2.21206 8.50019 2.20227 8.50019 2.19247 8.5H1.75C1.33579 8.5 1 8.16421 1 7.75V2.25C1 1.83579 1.33579 1.5 1.75 1.5C2.16421 1.5 2.5 1.83579 2.5 2.25L2.5 5.99861C2.68794 5.75859 2.89013 5.51324 3.10033 5.27046C3.76529 4.50246 4.55449 3.70925 5.29955 3.14961C7.0963 1.80002 9.33081 1 11.75 1C17.6871 1 22.5 5.81294 22.5 11.75C22.5 17.6871 17.6871 22.5 11.75 22.5C6.93541 22.5 2.86189 19.3354 1.49227 14.9747C1.36816 14.5796 1.58789 14.1586 1.98307 14.0345C2.37825 13.9103 2.79923 14.1301 2.92335 14.5253C4.10226 18.2788 7.60932 21 11.75 21C16.8586 21 21 16.8586 21 11.75C21 6.64137 16.8586 2.5 11.75 2.5Z" fill="currentColor"/>
<path d="M12.5 6.75C12.5 6.33579 12.1642 6 11.75 6C11.3358 6 11 6.33579 11 6.75V11.75C11 12.0086 11.1332 12.2489 11.3525 12.386L14.5525 14.386C14.9038 14.6055 15.3665 14.4988 15.586 14.1475C15.8055 13.7962 15.6988 13.3335 15.3475 13.114L12.5 11.3343V6.75Z" fill="currentColor"/>
</svg>
