<svg width="24" height="24" viewBox="0 0 24 24" fill="none" xmlns="http://www.w3.org/2000/svg">
<path fill-rule="evenodd" clip-rule="evenodd" d="M11.7501 2C8.8506 2 6.50009 4.3505 6.50009 7.25C6.50009 10.1495 8.8506 12.5 11.7501 12.5C14.6496 12.5 17.0001 10.1495 17.0001 7.25C17.0001 4.3505 14.6496 2 11.7501 2ZM8.00009 7.25C8.00009 5.17893 9.67902 3.5 11.7501 3.5C13.8212 3.5 15.5001 5.17893 15.5001 7.25C15.5001 9.32107 13.8212 11 11.7501 11C9.67902 11 8.00009 9.32107 8.00009 7.25Z" fill="#353566"/>
<path d="M4.49256 20.8561C4.92585 17.823 8.0156 15.5 11.7506 15.5C15.4854 15.5 18.5743 17.8229 19.0076 20.8561C19.0662 21.2661 19.4461 21.551 19.8562 21.4925C20.2662 21.4339 20.5511 21.054 20.4926 20.6439C19.9259 16.6771 16.0166 14 11.7506 14C7.48459 14 3.57434 16.677 3.00763 20.6439C2.94905 21.054 3.23398 21.4339 3.64403 21.4925C4.05408 21.551 4.43398 21.2661 4.49256 20.8561Z" fill="#353566"/>
</svg>
