<svg width="15" height="15" viewBox="0 0 15 15" fill="none" xmlns="http://www.w3.org/2000/svg">
<circle cx="7.5" cy="7.5" r="7" stroke="currentColor" stroke-dasharray="3 2"/>
<mask id="path-2-inside-1_106_1232" fill="white">
<path d="M7.49998 2.83342C8.73766 2.83342 9.92464 3.32508 10.7998 4.20025C11.675 5.07542 12.1666 6.2624 12.1666 7.50008C12.1666 8.73776 11.675 9.92474 10.7998 10.7999C9.92464 11.6751 8.73766 12.1667 7.49998 12.1667L7.49998 7.50008V2.83342Z"/>
</mask>
<path d="M7.49998 2.83342C8.73766 2.83342 9.92464 3.32508 10.7998 4.20025C11.675 5.07542 12.1666 6.2624 12.1666 7.50008C12.1666 8.73776 11.675 9.92474 10.7998 10.7999C9.92464 11.6751 8.73766 12.1667 7.49998 12.1667L7.49998 7.50008V2.83342Z" fill="currentColor" stroke="currentColor" stroke-width="2" mask="url(#path-2-inside-1_106_1232)"/>
</svg>
