<svg width="20" height="20" viewBox="0 0 20 20" fill="none" xmlns="http://www.w3.org/2000/svg">
<path d="M16.875 9.58329C16.875 5.55622 13.6104 2.29163 9.58332 2.29163C5.55625 2.29163 2.29166 5.55622 2.29166 9.58329C2.29166 13.6104 5.55625 16.875 9.58332 16.875C13.6104 16.875 16.875 13.6104 16.875 9.58329ZM18.125 9.58329C18.125 14.3007 14.3008 18.125 9.58332 18.125C4.86589 18.125 1.04166 14.3007 1.04166 9.58329C1.04166 4.86586 4.86589 1.04163 9.58332 1.04163C14.3008 1.04163 18.125 4.86586 18.125 9.58329Z" fill="#7676D6"/>
<path d="M16.2248 16.2247C16.4688 15.9807 16.8645 15.9807 17.1086 16.2247L18.7752 17.8914C19.0193 18.1355 19.0193 18.5311 18.7752 18.7752C18.5311 19.0193 18.1355 19.0193 17.8914 18.7752L16.2248 17.1085C15.9807 16.8644 15.9807 16.4688 16.2248 16.2247Z" fill="#7676D6"/>
</svg>
